<?xml version="1.0" encoding="UTF-8"?>
<svg width="700pt" height="700pt" version="1.1" viewBox="0 0 700 700" xmlns="http://www.w3.org/2000/svg">
 <path d="m536.67 280c0-6.1875-2.457-12.125-6.832-16.5-4.3789-4.3789-10.312-6.8359-16.504-6.832h-326.66c-8.3359 0-16.039 4.4453-20.207 11.664-4.168 7.2188-4.168 16.117 0 23.336 4.168 7.2188 11.871 11.664 20.207 11.664h326.66c6.1914 0.003907 12.125-2.4531 16.504-6.832 4.375-4.375 6.832-10.312 6.832-16.5zm-23.332 116.67h-163.34c-8.3359 0-16.039 4.4453-20.207 11.664s-4.168 16.117 0 23.336 11.871 11.664 20.207 11.664h163.33c8.3359 0 16.039-4.4453 20.207-11.664 4.168-7.2188 4.168-16.117 0-23.336-4.168-7.2188-11.871-11.664-20.207-11.664zm-326.67-233.34h163.33c8.3359 0 16.039-4.4453 20.207-11.664s4.168-16.117 0-23.336-11.871-11.664-20.207-11.664h-163.33c-8.3359 0-16.039 4.4453-20.207 11.664-4.168 7.2188-4.168 16.117 0 23.336 4.168 7.2188 11.871 11.664 20.207 11.664z"/>
</svg>
